<svg xmlns="http://www.w3.org/2000/svg" xmlns:xlink="http://www.w3.org/1999/xlink" width="500" zoomAndPan="magnify" viewBox="0 0 375 374.999991" height="500" preserveAspectRatio="xMidYMid meet" version="1.0"><defs><clipPath id="956e4c1e4b"><path d="M 164 29.269531 L 175 29.269531 L 175 60 L 164 60 Z M 164 29.269531 " clip-rule="nonzero"/></clipPath><clipPath id="862e345ec7"><path d="M 34.574219 146 L 65 146 L 65 156 L 34.574219 156 Z M 34.574219 146 " clip-rule="nonzero"/></clipPath><clipPath id="19bc1714c2"><path d="M 78 73 L 264 73 L 264 340.519531 L 78 340.519531 Z M 78 73 " clip-rule="nonzero"/></clipPath><clipPath id="ca36dff42e"><path d="M 204 129 L 345.824219 129 L 345.824219 280 L 204 280 Z M 204 129 " clip-rule="nonzero"/></clipPath></defs><g clip-path="url(#956e4c1e4b)"><path fill="#ffffff" d="M 169.804688 59.375 C 172.476562 59.375 174.660156 57.191406 174.660156 54.519531 L 174.660156 34.367188 C 174.660156 31.699219 172.476562 29.511719 169.804688 29.511719 C 167.132812 29.511719 164.949219 31.699219 164.949219 34.367188 L 164.949219 54.519531 C 164.949219 57.191406 166.890625 59.375 169.804688 59.375 Z M 169.804688 59.375 " fill-opacity="1" fill-rule="nonzero"/></g><path fill="#ffffff" d="M 123.917969 61.316406 C 124.890625 63.746094 127.800781 64.960938 130.230469 63.988281 C 132.65625 63.015625 133.871094 60.105469 132.902344 57.675781 L 125.132812 39.222656 C 124.160156 36.796875 121.246094 35.582031 118.820312 36.554688 C 116.390625 37.523438 115.175781 40.4375 116.148438 42.867188 C 116.148438 42.867188 123.917969 61.316406 123.917969 61.316406 Z M 123.917969 61.316406 " fill-opacity="1" fill-rule="nonzero"/><path fill="#ffffff" d="M 92.113281 87.78125 C 96.242188 87.78125 98.667969 82.441406 95.511719 79.527344 L 81.1875 65.445312 C 79.246094 63.503906 76.332031 63.503906 74.390625 65.445312 C 72.449219 67.386719 72.449219 70.300781 74.390625 72.242188 C 74.390625 72.242188 88.714844 86.324219 88.714844 86.324219 C 89.683594 87.296875 90.898438 87.78125 92.113281 87.78125 Z M 92.113281 87.78125 " fill-opacity="1" fill-rule="nonzero"/><path fill="#ffffff" d="M 68.320312 112.300781 L 49.625 104.535156 C 47.199219 103.5625 44.285156 104.777344 43.3125 107.203125 C 42.34375 109.632812 43.554688 112.546875 45.984375 113.515625 L 64.679688 121.285156 C 67.105469 122.257812 70.019531 121.042969 70.992188 118.613281 C 71.960938 116.1875 70.992188 113.273438 68.320312 112.300781 Z M 68.320312 112.300781 " fill-opacity="1" fill-rule="nonzero"/><g clip-path="url(#862e345ec7)"><path fill="#ffffff" d="M 59.578125 146.050781 L 39.429688 146.050781 C 36.757812 146.050781 34.574219 148.234375 34.574219 150.90625 C 34.574219 153.574219 36.757812 155.761719 39.429688 155.761719 L 59.578125 155.761719 C 62.25 155.761719 64.433594 153.574219 64.433594 150.90625 C 64.433594 148.234375 62.25 146.050781 59.578125 146.050781 Z M 59.578125 146.050781 " fill-opacity="1" fill-rule="nonzero"/></g><path fill="#ffffff" d="M 266.917969 114.730469 C 267.890625 117.160156 270.800781 118.371094 273.230469 117.402344 L 291.925781 109.632812 C 294.351562 108.660156 295.566406 105.746094 294.59375 103.320312 C 293.625 100.890625 290.710938 99.679688 288.28125 100.648438 L 269.589844 108.417969 C 266.917969 109.390625 265.703125 112.058594 266.917969 114.730469 Z M 266.917969 114.730469 " fill-opacity="1" fill-rule="nonzero"/><path fill="#ffffff" d="M 247.738281 89.238281 C 248.953125 89.238281 250.164062 88.753906 251.136719 87.78125 L 265.460938 73.699219 C 267.402344 71.757812 267.402344 68.84375 265.460938 66.902344 C 263.519531 64.960938 260.605469 64.960938 258.664062 66.902344 C 258.664062 66.902344 244.339844 80.984375 244.339844 80.984375 C 241.425781 83.898438 243.609375 89.238281 247.738281 89.238281 Z M 247.738281 89.238281 " fill-opacity="1" fill-rule="nonzero"/><path fill="#ffffff" d="M 211.804688 65.6875 C 214.234375 66.660156 217.148438 65.445312 218.117188 63.015625 L 225.886719 44.566406 C 226.859375 42.136719 225.644531 39.222656 223.214844 38.253906 C 220.789062 37.28125 217.875 38.496094 216.902344 40.925781 L 209.136719 59.375 C 208.164062 61.804688 209.378906 64.71875 211.804688 65.6875 Z M 211.804688 65.6875 " fill-opacity="1" fill-rule="nonzero"/><g clip-path="url(#19bc1714c2)"><path fill="#ffffff" d="M 209.378906 289.292969 C 209.136719 289.292969 208.890625 289.292969 208.648438 289.292969 C 207.679688 290.75 205.980469 291.71875 204.035156 291.71875 L 137.027344 291.71875 C 133.871094 291.71875 131.6875 289.777344 131.6875 288.078125 L 131.6875 282.007812 C 131.929688 282.007812 196.753906 282.007812 196.753906 282.007812 C 195.054688 279.097656 194.324219 275.695312 195.054688 272.296875 L 188.011719 272.296875 L 194.8125 190.480469 C 207.191406 193.394531 221.273438 189.75 225.402344 178.339844 C 226.859375 174.210938 226.617188 169.355469 224.429688 165.230469 C 222.488281 161.34375 219.332031 158.675781 215.449219 157.703125 C 207.921875 155.519531 194.324219 155.761719 186.800781 179.070312 C 184.128906 178.339844 181.457031 177.367188 179.03125 176.15625 C 180.488281 174.210938 181.699219 172.269531 182.671875 169.84375 C 185.097656 164.257812 187.527344 157.460938 185.828125 150.421875 C 184.855469 146.292969 181.941406 142.40625 178.300781 140.464844 C 174.902344 138.523438 171.019531 138.039062 167.375 139.007812 C 158.394531 141.679688 155.238281 151.148438 155.480469 159.160156 C 155.480469 166.199219 158.148438 172.269531 163.25 177.125 C 160.820312 178.339844 158.148438 179.554688 154.996094 180.523438 C 147.46875 155.761719 133.628906 155.519531 125.859375 157.460938 C 122.21875 158.433594 118.820312 161.34375 116.878906 164.988281 C 114.691406 169.113281 114.449219 173.96875 115.90625 178.097656 C 120.03125 189.507812 134.359375 193.148438 146.496094 190.238281 L 153.050781 272.054688 L 132.414062 272.054688 C 129.015625 272.054688 127.074219 270.355469 127.074219 269.140625 L 127.074219 261.371094 C 127.074219 251.175781 118.578125 237.824219 110.320312 228.839844 C 95.996094 212.816406 87.984375 191.691406 87.984375 169.601562 C 87.984375 121.769531 125.132812 82.925781 170.53125 82.925781 C 215.933594 82.925781 253.078125 121.769531 253.078125 169.601562 C 253.078125 176.882812 252.109375 183.925781 250.652344 190.722656 L 262.304688 181.011719 C 262.789062 177.125 263.035156 173.484375 263.035156 169.601562 C 262.789062 116.429688 221.515625 73.214844 170.53125 73.214844 C 119.546875 73.214844 78.273438 116.429688 78.273438 169.601562 C 78.273438 194.121094 87.015625 217.429688 103.039062 235.394531 C 111.292969 244.621094 117.121094 255.546875 117.121094 261.617188 L 117.121094 269.382812 C 117.121094 273.027344 119.0625 276.425781 121.976562 278.609375 C 121.976562 278.851562 121.976562 279.339844 121.976562 279.582031 L 121.976562 288.078125 C 121.976562 292.933594 124.890625 297.0625 129.257812 299.488281 L 129.257812 306.289062 C 129.257812 314.300781 136.058594 320.855469 144.554688 320.855469 L 146.253906 320.855469 L 146.253906 325.710938 C 146.253906 333.722656 152.808594 340.277344 160.820312 340.277344 L 180.242188 340.277344 C 188.253906 340.277344 194.8125 333.722656 194.8125 325.710938 L 194.8125 320.855469 L 196.511719 320.855469 C 205.007812 320.855469 211.804688 314.300781 211.804688 306.289062 L 211.804688 299.246094 C 215.933594 296.820312 218.847656 292.449219 219.089844 287.351562 L 212.535156 288.808594 C 211.5625 289.292969 210.347656 289.292969 209.378906 289.292969 Z M 213.019531 167.171875 C 214.234375 167.414062 215.203125 168.386719 215.933594 169.84375 C 216.902344 171.542969 216.902344 173.484375 216.417969 175.183594 C 214.234375 181.253906 204.523438 183.195312 196.511719 181.011719 C 200.394531 169.84375 205.734375 165.230469 213.019531 167.171875 Z M 169.804688 148.71875 C 172.71875 147.992188 175.386719 150.664062 176.117188 153.089844 C 177.085938 157.21875 175.386719 162.074219 173.6875 166.199219 C 172.960938 167.902344 171.746094 169.601562 170.53125 171.300781 C 166.890625 167.902344 164.949219 164.015625 164.949219 159.402344 C 164.949219 157.703125 165.191406 149.933594 169.804688 148.71875 Z M 171.503906 183.4375 C 175.875 185.867188 180.488281 187.324219 185.34375 188.78125 L 178.300781 272.296875 L 162.519531 272.296875 L 155.964844 190.480469 C 162.035156 188.78125 167.132812 186.59375 171.503906 183.4375 Z M 124.644531 175.183594 C 124.160156 173.726562 124.160156 171.542969 124.890625 170.085938 C 125.859375 167.65625 128.53125 166.6875 131.203125 166.6875 C 136.785156 166.6875 141.398438 171.542969 144.796875 181.011719 C 136.542969 183.195312 127.074219 181.253906 124.644531 175.183594 Z M 185.097656 325.710938 C 185.097656 328.382812 182.914062 330.566406 180.242188 330.566406 L 160.820312 330.566406 C 158.148438 330.566406 155.964844 328.382812 155.964844 325.710938 L 155.964844 320.855469 L 185.097656 320.855469 Z M 202.09375 306.289062 C 202.09375 308.957031 199.667969 311.144531 196.511719 311.144531 L 144.554688 311.144531 C 141.398438 311.144531 138.96875 308.957031 138.96875 306.289062 L 138.96875 301.433594 L 202.09375 301.433594 Z M 202.09375 306.289062 " fill-opacity="1" fill-rule="nonzero"/></g><g clip-path="url(#ca36dff42e)"><path fill="#ffffff" d="M 337.324219 191.691406 L 258.175781 257.246094 C 258.175781 257.246094 249.4375 247.292969 249.4375 247.292969 C 249.4375 247.292969 301.878906 203.105469 301.878906 203.105469 C 303.820312 201.40625 304.0625 198.25 302.363281 196.304688 C 300.664062 194.363281 297.507812 193.878906 295.566406 195.820312 C 295.566406 195.820312 243.125 240.25 243.125 240.25 L 234.382812 230.296875 L 343.636719 138.039062 C 345.582031 136.339844 345.824219 133.183594 344.125 131.238281 C 342.425781 129.296875 339.269531 128.8125 337.324219 130.753906 C 337.324219 130.753906 224.429688 226.167969 224.1875 226.167969 C 223.703125 226.65625 223.214844 227.140625 222.972656 227.867188 C 222.972656 227.867188 204.765625 273.269531 204.765625 273.269531 C 204.035156 274.96875 204.523438 276.910156 205.492188 278.125 C 206.707031 279.582031 208.40625 280.066406 210.347656 279.824219 L 258.664062 269.140625 C 259.390625 268.898438 260.121094 268.65625 260.605469 268.171875 L 343.394531 199.707031 C 345.582031 198.003906 345.824219 194.847656 344.125 192.90625 C 342.425781 190.238281 339.511719 189.992188 337.324219 191.691406 Z M 217.390625 267.925781 L 229.042969 238.550781 L 248.710938 260.886719 Z M 217.390625 267.925781 " fill-opacity="1" fill-rule="nonzero"/></g><path fill="#ffffff" d="M 318.632812 187.324219 C 318.632812 187.640625 318.601562 187.957031 318.539062 188.269531 C 318.476562 188.582031 318.382812 188.886719 318.261719 189.179688 C 318.140625 189.476562 317.988281 189.753906 317.8125 190.019531 C 317.636719 190.285156 317.433594 190.53125 317.207031 190.757812 C 316.984375 190.980469 316.738281 191.183594 316.472656 191.359375 C 316.207031 191.539062 315.929688 191.6875 315.632812 191.808594 C 315.339844 191.929688 315.035156 192.023438 314.722656 192.085938 C 314.410156 192.148438 314.09375 192.179688 313.773438 192.179688 C 313.457031 192.179688 313.140625 192.148438 312.828125 192.085938 C 312.515625 192.023438 312.210938 191.929688 311.917969 191.808594 C 311.621094 191.6875 311.34375 191.539062 311.078125 191.359375 C 310.8125 191.183594 310.566406 190.980469 310.34375 190.757812 C 310.117188 190.53125 309.914062 190.285156 309.738281 190.019531 C 309.5625 189.753906 309.410156 189.476562 309.289062 189.179688 C 309.167969 188.886719 309.074219 188.582031 309.011719 188.269531 C 308.949219 187.957031 308.917969 187.640625 308.917969 187.324219 C 308.917969 187.003906 308.949219 186.6875 309.011719 186.375 C 309.074219 186.0625 309.167969 185.757812 309.289062 185.464844 C 309.410156 185.171875 309.5625 184.890625 309.738281 184.625 C 309.914062 184.359375 310.117188 184.113281 310.34375 183.890625 C 310.566406 183.664062 310.8125 183.464844 311.078125 183.285156 C 311.34375 183.109375 311.621094 182.960938 311.917969 182.835938 C 312.210938 182.714844 312.515625 182.621094 312.828125 182.5625 C 313.140625 182.5 313.457031 182.46875 313.773438 182.46875 C 314.09375 182.46875 314.410156 182.5 314.722656 182.5625 C 315.035156 182.621094 315.339844 182.714844 315.632812 182.835938 C 315.929688 182.960938 316.207031 183.109375 316.472656 183.285156 C 316.738281 183.464844 316.984375 183.664062 317.207031 183.890625 C 317.433594 184.113281 317.636719 184.359375 317.8125 184.625 C 317.988281 184.890625 318.140625 185.171875 318.261719 185.464844 C 318.382812 185.757812 318.476562 186.0625 318.539062 186.375 C 318.601562 186.6875 318.632812 187.003906 318.632812 187.324219 Z M 318.632812 187.324219 " fill-opacity="1" fill-rule="nonzero"/><path fill="#ffffff" d="M 276.628906 149.207031 C 276.628906 151.875 278.8125 154.0625 281.484375 154.0625 L 294.109375 154.0625 L 304.550781 145.320312 C 303.820312 144.835938 302.851562 144.351562 301.636719 144.351562 L 281.484375 144.351562 C 278.8125 144.351562 276.628906 146.535156 276.628906 149.207031 Z M 276.628906 149.207031 " fill-opacity="1" fill-rule="nonzero"/></svg>